<mxfile host="app.diagrams.net" modified="2023-05-06T23:27:01.723Z" agent="Mozilla/5.0 (Windows NT 10.0; Win64; x64) AppleWebKit/537.36 (KHTML, like Gecko) Chrome/113.0.0.0 Safari/537.36" version="21.2.3" etag="WL-okOU26rFdWkb0wglz" type="github">
  <diagram name="第 1 页" id="mxjlTtzpWeHV2vpOXoms">
    <mxGraphModel>
      <root>
        <mxCell id="0" />
        <mxCell id="1" parent="0" />
      </root>
    </mxGraphModel>
  </diagram>
</mxfile>
